<svg width="155" height="92" viewBox="0 0 155 92" fill="none" xmlns="http://www.w3.org/2000/svg">
<path d="M33 91.656C25.4053 91.656 18.664 90.7173 12.776 88.84C6.888 87.048 2.92 84.1467 0.872 80.136C0.445333 79.2827 0.232 78.728 0.232 78.472C0.232 78.3013 0.317333 78.216 0.488 78.216C0.829333 78.216 1.42667 78.5147 2.28 79.112C5.52267 81.3307 9.66133 82.7813 14.696 83.464C19.7307 84.1467 24.7653 84.488 29.8 84.488C34.664 84.488 39.912 84.0613 45.544 83.208C51.2613 82.3547 56.9787 81.1173 62.696 79.496C68.4987 77.7893 74.1307 75.656 79.592 73.096C85.0533 70.536 90.0453 67.5493 94.568 64.136C101.651 58.76 106.813 53.5547 110.056 48.52C113.299 43.4853 114.92 38.7493 114.92 34.312C114.92 29.448 113.128 25.1387 109.544 21.384C105.96 17.6293 100.968 14.728 94.568 12.68C88.2533 10.5467 80.8293 9.48 72.296 9.48C69.224 9.48 66.0667 9.608 62.824 9.864C57.3627 10.376 51.9013 11.3147 46.44 12.68C41.064 13.96 35.9013 15.5813 30.952 17.544C26.088 19.5067 21.736 21.64 17.896 23.944C14.056 26.248 11.0267 28.6373 8.808 31.112C6.67467 33.5013 5.608 35.848 5.608 38.152C5.608 39.6027 6.12 41.0533 7.144 42.504C7.4 42.76 7.528 43.1013 7.528 43.528C7.528 43.8693 7.4 44.1253 7.144 44.296C6.888 44.3813 6.54667 44.2533 6.12 43.912C5.352 43.0587 4.62667 41.736 3.944 39.944C3.26133 38.0667 2.92 35.976 2.92 33.672C2.92 31.368 3.432 28.9787 4.456 26.504C5.56533 23.944 7.48533 21.5973 10.216 19.464C13.4587 16.904 17.4693 14.5147 22.248 12.296C27.0267 9.992 32.232 7.98666 37.864 6.28C43.5813 4.57333 49.4267 3.25066 55.4 2.312C61.4587 1.37333 67.432 0.903999 73.32 0.903999C83.4747 0.903999 91.7947 2.44 98.28 5.51199C104.851 8.49866 109.715 12.5093 112.872 17.544C116.029 22.4933 117.608 27.9547 117.608 33.928C117.608 39.3893 116.285 44.9787 113.64 50.696C111.08 56.4133 107.283 61.832 102.248 66.952C97.2987 72.072 91.1547 76.5093 83.816 80.264C79.1227 82.568 73.9173 84.5733 68.2 86.28C62.4827 87.9867 56.5947 89.3093 50.536 90.248C44.4773 91.1867 38.632 91.656 33 91.656ZM20.072 74.376C19.4747 74.376 19.176 73.7787 19.176 72.584C19.176 71.3893 19.816 69.4267 21.096 66.696C22.4613 63.9653 24.2533 60.808 26.472 57.224C28.6907 53.64 31.1227 49.8853 33.768 45.96C36.4987 41.9493 39.2293 38.0667 41.96 34.312C44.6907 30.472 47.2507 27.016 49.64 23.944C52.0293 20.7867 54.0347 18.312 55.656 16.52C57.3627 14.6427 58.4293 13.704 58.856 13.704H60.008C60.9467 13.704 61.416 13.9173 61.416 14.344C61.416 14.7707 61.0747 15.3253 60.392 16.008C57.4907 19.1653 54.4187 22.7493 51.176 26.76C48.0187 30.7707 44.8613 34.9947 41.704 39.432C38.5467 43.784 35.56 48.0933 32.744 52.36C30.0133 56.6267 27.624 60.5947 25.576 64.264C23.528 67.9333 22.0347 71.0053 21.096 73.48C20.84 74.0773 20.4987 74.376 20.072 74.376Z" fill="white"/>
<path d="M116.171 86.408C112.758 86.408 109.771 85.768 107.211 84.488C104.566 83.1227 102.646 80.648 101.451 77.064C101.366 76.7227 101.494 76.5093 101.835 76.424C102.091 76.3387 102.262 76.5093 102.347 76.936C103.2 78.8133 104.31 80.136 105.675 80.904C107.04 81.672 108.534 82.056 110.155 82.056C112.886 82.056 115.275 81.2453 117.323 79.624C119.456 78.0027 121.334 75.9547 122.955 73.48C124.662 71.0053 126.155 68.488 127.435 65.928C128.8 63.2827 130.08 61.0213 131.275 59.144C133.152 55.9867 135.371 53.128 137.931 50.568C140.576 48.008 142.966 46.4293 145.099 45.832C144.587 45.576 143.947 45.448 143.179 45.448C141.046 45.448 138.699 46.088 136.139 47.368C133.579 48.648 130.976 50.312 128.331 52.36C125.771 54.408 123.254 56.584 120.779 58.888C118.39 61.1067 116.171 63.1973 114.123 65.16C112.16 67.0373 110.582 68.5307 109.387 69.64C108.704 70.2373 108.192 70.536 107.851 70.536C107.51 70.536 107.339 70.3653 107.339 70.024C107.339 69.512 107.552 69.0427 107.979 68.616C110.539 66.3973 113.184 63.9227 115.915 61.192C118.646 58.376 121.419 55.688 124.235 53.128C127.051 50.4827 129.91 48.3067 132.811 46.6C135.712 44.8933 138.656 44.04 141.643 44.04C141.984 44.04 142.283 44.04 142.539 44.04C142.88 44.04 143.222 44.0827 143.563 44.168C144.502 44.2533 145.355 44.5093 146.123 44.936C146.976 45.3627 147.232 45.6613 146.891 45.832C144.928 46.6853 143.392 48.392 142.283 50.952C141.174 53.512 140.15 56.4987 139.211 59.912C138.272 63.3253 137.12 66.7813 135.755 70.28C134.475 73.7787 132.598 76.8933 130.123 79.624C131.318 79.1973 133.195 78.216 135.755 76.68C138.315 75.144 141.131 73.2667 144.203 71.048C147.275 68.744 150.134 66.2267 152.779 63.496C153.12 63.1547 153.462 62.984 153.803 62.984C154.23 62.984 154.443 63.1973 154.443 63.624C154.443 63.9653 154.272 64.3067 153.931 64.648C151.627 66.8667 149.067 69.256 146.251 71.816C143.435 74.2907 140.363 76.6373 137.035 78.856C133.792 81.0747 130.422 82.9093 126.923 84.36C123.424 85.7253 119.84 86.408 116.171 86.408Z" fill="#0075FF"/>
</svg>
