<svg width="107" height="150" viewBox="0 0 107 150" fill="none" xmlns="http://www.w3.org/2000/svg">
<g clip-path="url(#clip0_7_32)">
<path d="M53.1252 149.621L9.83625 137.604L0.189301 29.4042H106.191L96.5338 137.587L53.1252 149.621Z" fill="#0075FF"/>
<path d="M88.2663 130.698L96.5184 38.2508H53.19V140.422L88.2663 130.698Z" fill="#0075FF"/>
<path d="M22.3045 78.3806L23.4937 91.6508H53.19V78.3806H22.3045ZM19.9145 51.5215L21.1208 64.7917H53.19V51.5215H19.9145ZM53.19 112.845L53.1318 112.86L38.3529 108.87L37.408 98.2862H24.0867L25.9457 119.122L53.1289 126.668L53.19 126.652V112.845Z" fill="#EBEBEB"/>
<path d="M25.1363 0H41.2083V6.72133H31.8576V13.4427H41.2091V20.1636H25.1363V0ZM44.4231 0H60.4955V5.8446H51.1444V7.01343H60.4955V20.4561H44.4235V14.3186H53.7746V13.1497H44.4227L44.4231 0ZM63.7104 0H79.7828V5.8446H70.4317V7.01343H79.7828V20.4561H63.7104V14.3186H73.0615V13.1497H63.7108L63.7104 0Z" fill="white"/>
<path d="M83.9907 78.3806L86.3861 51.5215H53.1443V64.7917H71.8432L70.6357 78.3806H53.1443V91.6508H69.4851L67.9444 108.861L53.1439 112.856V126.662L80.3487 119.122L80.5482 116.88L83.667 81.944L83.9907 78.3806Z" fill="white"/>
</g>
<defs>
<clipPath id="clip0_7_32">
<rect width="106.38" height="150" fill="white"/>
</clipPath>
</defs>
</svg>
