<svg width="107" height="150" viewBox="0 0 107 150" fill="none" xmlns="http://www.w3.org/2000/svg">
<g clip-path="url(#clip0_7_18)">
<path d="M106.191 29.4042L96.5338 137.587L53.1252 149.621L9.83625 137.604L0.189301 29.4042H106.191Z" fill="#0075FF"/>
<path d="M53.19 140.422L88.2663 130.698L96.5184 38.2508H53.19V140.422Z" fill="#0075FF"/>
<path d="M34.4172 64.7917H53.19V51.5215H19.9145L20.232 55.0816L23.4937 91.6508H53.19V78.3806H35.63L34.4172 64.7917ZM37.408 98.2862H24.0867L25.9457 119.122L53.1289 126.668L53.19 126.652V112.845L53.1318 112.86L38.3529 108.87L37.408 98.2862Z" fill="white"/>
<path d="M10.0515 0H16.7953V6.66274H22.9644V0H29.7085V20.1765H22.9648V13.4202H16.7957V20.1765H10.0519L10.0515 0ZM38.5764 6.691H32.6404V0H51.2612V6.691H45.3214V20.1765H38.5777V6.691H38.5764ZM54.2163 0H61.248L65.5735 7.08947L69.8948 0H76.9295V20.1765H70.2131V10.1759L65.5735 17.3497H65.4572L60.8146 10.1759V20.1765H54.2163V0ZM80.2856 0H87.0314V13.5075H96.5151V20.1765H80.2851L80.2856 0Z" fill="white"/>
<path d="M53.1443 91.6508H69.4852L67.9444 108.861L53.1439 112.856V126.662L80.3487 119.122L80.5482 116.88L83.667 81.944L83.9907 78.3806H53.1443V91.6508ZM53.1443 64.7593V64.7917H85.1982L85.4641 61.8091L86.0691 55.0816L86.3861 51.5215H53.1443V64.7593Z" fill="white"/>
</g>
<defs>
<clipPath id="clip0_7_18">
<rect width="106.38" height="150" fill="white"/>
</clipPath>
</defs>
</svg>
