<svg width="125" height="125" viewBox="0 0 125 125" fill="none" xmlns="http://www.w3.org/2000/svg">
<path d="M7.8125 7.8125H117.188V117.188H7.8125V7.8125Z" fill="#0075FF"/>
<path d="M81.2852 93.2617C82.2186 95.1535 83.6667 96.7435 85.4633 97.8491C87.2599 98.9547 89.332 99.531 91.4414 99.5117C95.6992 99.5117 98.4219 97.3828 98.4219 94.4336C98.4219 90.918 95.625 89.6602 90.9375 87.6094L88.3672 86.5078C80.9453 83.3477 76.0234 79.3906 76.0234 71.0234C76.0234 63.3164 81.8828 57.4453 91.0742 57.4453C94.0496 57.231 97.0222 57.8971 99.6215 59.3607C102.221 60.8243 104.332 63.0206 105.691 65.6758L97.6563 70.8125C97.1324 69.4961 96.2211 68.3699 95.0429 67.583C93.8647 66.7962 92.4752 66.3858 91.0586 66.4063C90.4405 66.3444 89.8162 66.4119 89.2257 66.6046C88.6351 66.7973 88.0912 67.1109 87.6285 67.5255C87.1658 67.94 86.7946 68.4464 86.5384 69.0123C86.2822 69.5782 86.1468 70.1913 86.1406 70.8125C86.1406 73.8945 88.0508 75.1445 92.4609 77.0625L95.0313 78.1641C103.766 81.9102 108.703 85.7266 108.703 94.3086C108.703 103.563 101.434 108.633 91.6719 108.633C87.8688 108.873 84.0774 108.008 80.7542 106.143C77.4311 104.278 74.7179 101.492 72.9414 98.1211L81.2852 93.2617ZM44.9766 94.1523C46.5898 97.0156 48.0586 99.4375 51.5898 99.4375C54.9648 99.4375 57.0977 98.1172 57.0977 92.9805V58.0313H67.375V93.1172C67.375 103.758 61.125 108.602 52.0273 108.602C48.8115 108.777 45.6178 107.976 42.866 106.303C40.1141 104.629 37.933 102.163 36.6094 99.2266L44.9766 94.1523Z" fill="white"/>
</svg>
